<svg height="200" viewBox="0 0 320 200" xmlns="http://www.w3.org/2000/svg">
  <rect id="swatch" width="40" height="40"/>
  <use href="#swatch" x="0" fill="rgb(1,3,2)"/>
  <use href="#swatch" x="40" fill="rgb(4,25,28)"/>
  <use href="#swatch" x="80" fill="rgb(11,65,74)"/>
  <use href="#swatch" x="120" fill="rgb(225,228,231)"/>
  <use href="#swatch" x="160" fill="rgb(66,126,140)"/>
  <use href="#swatch" x="200" fill="rgb(72,44,35)"/>
  <use href="#swatch" x="240" fill="rgb(195,126,100)"/>
  <use href="#swatch" x="280" fill="rgb(141,114,151)"/>
  <use href="#swatch" x="0" y="40" fill="rgb(16,24,23)"/>
  <use href="#swatch" x="40" y="40" fill="rgb(5,26,29)"/>
  <use href="#swatch" x="80" y="40" fill="rgb(2,26,30)"/>
  <use href="#swatch" x="120" y="40" fill="rgb(20,22,25)"/>
  <use href="#swatch" x="160" y="40" fill="rgb(8,25,29)"/>
  <use href="#swatch" x="200" y="40" fill="rgb(33,18,13)"/>
  <use href="#swatch" x="240" y="40" fill="rgb(35,17,10)"/>
  <use href="#swatch" x="280" y="40" fill="rgb(27,19,30)"/>
  <use href="#swatch" x="0" y="80" fill="rgb(56,74,71)"/>
  <use href="#swatch" x="40" y="80" fill="rgb(27,78,86)"/>
  <use href="#swatch" x="80" y="80" fill="rgb(15,79,89)"/>
  <use href="#swatch" x="120" y="80" fill="rgb(66,70,76)"/>
  <use href="#swatch" x="160" y="80" fill="rgb(36,76,86)"/>
  <use href="#swatch" x="200" y="80" fill="rgb(94,60,49)"/>
  <use href="#swatch" x="240" y="80" fill="rgb(99,57,41)"/>
  <use href="#swatch" x="280" y="80" fill="rgb(81,61,88)"/>
  <use href="#swatch" x="0" y="120" fill="rgb(99,125,121)"/>
  <use href="#swatch" x="40" y="120" fill="rgb(52,132,144)"/>
  <use href="#swatch" x="80" y="120" fill="rgb(31,133,149)"/>
  <use href="#swatch" x="120" y="120" fill="rgb(113,120,128)"/>
  <use href="#swatch" x="160" y="120" fill="rgb(68,129,144)"/>
  <use href="#swatch" x="200" y="120" fill="rgb(155,105,89)"/>
  <use href="#swatch" x="240" y="120" fill="rgb(164,100,76)"/>
  <use href="#swatch" x="280" y="120" fill="rgb(134,107,144)"/>
  <use href="#swatch" x="0" y="160" fill="rgb(150,178,173)"/>
  <use href="#swatch" x="40" y="160" fill="rgb(88,188,204)"/>
  <use href="#swatch" x="80" y="160" fill="rgb(54,191,213)"/>
  <use href="#swatch" x="120" y="160" fill="rgb(166,172,180)"/>
  <use href="#swatch" x="160" y="160" fill="rgb(112,184,201)"/>
  <use href="#swatch" x="200" y="160" fill="rgb(207,159,143)"/>
  <use href="#swatch" x="240" y="160" fill="rgb(216,155,131)"/>
  <use href="#swatch" x="280" y="160" fill="rgb(185,161,194)"/>
</svg>
