<svg height="200" viewBox="0 0 280 200" xmlns="http://www.w3.org/2000/svg">
  <rect id="swatch" width="40" height="40"/>
  <use href="#swatch" x="0" fill="rgb(32,34,33)"/>
  <use href="#swatch" x="40" fill="rgb(8,27,31)"/>
  <use href="#swatch" x="80" fill="rgb(14,71,80)"/>
  <use href="#swatch" x="120" fill="rgb(52,32,23)"/>
  <use href="#swatch" x="160" fill="rgb(179,112,76)"/>
  <use href="#swatch" x="200" fill="rgb(125,113,152)"/>
  <use href="#swatch" x="240" fill="rgb(164,103,117)"/>
  <use href="#swatch" x="0" y="40" fill="rgb(21,23,22)"/>
  <use href="#swatch" x="40" y="40" fill="rgb(8,25,29)"/>
  <use href="#swatch" x="80" y="40" fill="rgb(2,26,30)"/>
  <use href="#swatch" x="120" y="40" fill="rgb(32,18,12)"/>
  <use href="#swatch" x="160" y="40" fill="rgb(35,17,7)"/>
  <use href="#swatch" x="200" y="40" fill="rgb(24,20,32)"/>
  <use href="#swatch" x="240" y="40" fill="rgb(34,16,20)"/>
  <use href="#swatch" x="0" y="80" fill="rgb(68,71,69)"/>
  <use href="#swatch" x="40" y="80" fill="rgb(36,77,84)"/>
  <use href="#swatch" x="80" y="80" fill="rgb(17,78,89)"/>
  <use href="#swatch" x="120" y="80" fill="rgb(93,61,46)"/>
  <use href="#swatch" x="160" y="80" fill="rgb(100,58,35)"/>
  <use href="#swatch" x="200" y="80" fill="rgb(73,64,92)"/>
  <use href="#swatch" x="240" y="80" fill="rgb(97,56,66)"/>
  <use href="#swatch" x="0" y="120" fill="rgb(116,120,118)"/>
  <use href="#swatch" x="40" y="120" fill="rgb(68,130,141)"/>
  <use href="#swatch" x="80" y="120" fill="rgb(35,133,149)"/>
  <use href="#swatch" x="120" y="120" fill="rgb(153,106,85)"/>
  <use href="#swatch" x="160" y="120" fill="rgb(164,101,67)"/>
  <use href="#swatch" x="200" y="120" fill="rgb(123,111,151)"/>
  <use href="#swatch" x="240" y="120" fill="rgb(159,99,113)"/>
  <use href="#swatch" x="0" y="160" fill="rgb(168,172,170)"/>
  <use href="#swatch" x="40" y="160" fill="rgb(111,185,199)"/>
  <use href="#swatch" x="80" y="160" fill="rgb(60,190,212)"/>
  <use href="#swatch" x="120" y="160" fill="rgb(206,159,138)"/>
  <use href="#swatch" x="160" y="160" fill="rgb(220,154,120)"/>
  <use href="#swatch" x="200" y="160" fill="rgb(175,165,199)"/>
  <use href="#swatch" x="240" y="160" fill="rgb(208,154,166)"/>
</svg>
