<svg height="200" viewBox="0 0 320 200" xmlns="http://www.w3.org/2000/svg">
  <rect id="swatch" width="40" height="40"/>
  <use href="#swatch" x="0" fill="rgb(16,20,20)"/>
  <use href="#swatch" x="40" fill="rgb(9,31,35)"/>
  <use href="#swatch" x="80" fill="rgb(15,74,84)"/>
  <use href="#swatch" x="120" fill="rgb(87,80,75)"/>
  <use href="#swatch" x="160" fill="rgb(122,75,65)"/>
  <use href="#swatch" x="200" fill="rgb(190,119,78)"/>
  <use href="#swatch" x="240" fill="rgb(120,113,152)"/>
  <use href="#swatch" x="280" fill="rgb(159,104,135)"/>
  <use href="#swatch" x="0" y="40" fill="rgb(19,23,23)"/>
  <use href="#swatch" x="40" y="40" fill="rgb(6,25,29)"/>
  <use href="#swatch" x="80" y="40" fill="rgb(2,26,30)"/>
  <use href="#swatch" x="120" y="40" fill="rgb(24,22,20)"/>
  <use href="#swatch" x="160" y="40" fill="rgb(34,17,13)"/>
  <use href="#swatch" x="200" y="40" fill="rgb(36,17,6)"/>
  <use href="#swatch" x="240" y="40" fill="rgb(22,20,33)"/>
  <use href="#swatch" x="280" y="40" fill="rgb(33,16,26)"/>
  <use href="#swatch" x="0" y="80" fill="rgb(62,72,72)"/>
  <use href="#swatch" x="40" y="80" fill="rgb(32,77,85)"/>
  <use href="#swatch" x="80" y="80" fill="rgb(16,78,89)"/>
  <use href="#swatch" x="120" y="80" fill="rgb(75,68,64)"/>
  <use href="#swatch" x="160" y="80" fill="rgb(97,58,49)"/>
  <use href="#swatch" x="200" y="80" fill="rgb(100,57,33)"/>
  <use href="#swatch" x="240" y="80" fill="rgb(70,65,93)"/>
  <use href="#swatch" x="280" y="80" fill="rgb(93,56,77)"/>
  <use href="#swatch" x="0" y="120" fill="rgb(109,122,123)"/>
  <use href="#swatch" x="40" y="120" fill="rgb(61,131,143)"/>
  <use href="#swatch" x="80" y="120" fill="rgb(34,133,149)"/>
  <use href="#swatch" x="120" y="120" fill="rgb(126,117,110)"/>
  <use href="#swatch" x="160" y="120" fill="rgb(159,102,89)"/>
  <use href="#swatch" x="200" y="120" fill="rgb(165,100,63)"/>
  <use href="#swatch" x="240" y="120" fill="rgb(119,113,152)"/>
  <use href="#swatch" x="280" y="120" fill="rgb(153,99,130)"/>
  <use href="#swatch" x="0" y="160" fill="rgb(161,174,175)"/>
  <use href="#swatch" x="40" y="160" fill="rgb(101,186,201)"/>
  <use href="#swatch" x="80" y="160" fill="rgb(58,190,212)"/>
  <use href="#swatch" x="120" y="160" fill="rgb(178,170,163)"/>
  <use href="#swatch" x="160" y="160" fill="rgb(210,157,145)"/>
  <use href="#swatch" x="200" y="160" fill="rgb(222,153,115)"/>
  <use href="#swatch" x="240" y="160" fill="rgb(171,167,200)"/>
  <use href="#swatch" x="280" y="160" fill="rgb(204,155,181)"/>
</svg>
